<?xml version="1.0" encoding="UTF-8"?>
<!-- Generator: Adobe Illustrator 16.0.3, SVG Export Plug-In . SVG Version: 6.00 Build 0)  -->
<svg xmlns:dc="http://purl.org/dc/elements/1.1/" xmlns:cc="http://creativecommons.org/ns#" xmlns:rdf="http://www.w3.org/1999/02/22-rdf-syntax-ns#" xmlns:svg="http://www.w3.org/2000/svg" xmlns="http://www.w3.org/2000/svg" xmlns:xlink="http://www.w3.org/1999/xlink" version="1.1" id="svg2" x="0px" y="0px" width="66.666px" height="30.666px" viewBox="0 0 66.666 30.666" xml:space="preserve">
<g id="g10" transform="matrix(1.3333333,0,0,-1.3333333,0,30.666667)">
	<g id="g12" transform="scale(0.1)">
		<path id="path14" fill="#FFFFFF" d="M3.232,9.092v212.622H66c23.716,0,42.319-7.156,53.767-20.237    c7.771-9.814,12.268-23.101,12.268-37.214c0-14.927-2.659-25.554-9.609-34.343c-7.156-6.958-15.132-10.635-26.58-10.635    c14.114-1.633,22.903-6.13,30.059-15.74c6.951-8.789,9.609-20.244,9.609-32.717c0-22.075-6.958-38.635-20.244-48.45    C104.643,13.582,90.529,9.092,73.771,9.092H3.232z M55.373,95.57V55.909c9.602,0,16.758,0.82,20.237,4.497    c3.479,2.454,6.13,6.951,6.13,13.088c0,7.148-2.651,12.473-6.951,16.758C69.472,93.731,63.342,95.57,55.373,95.57z     M55.373,138.709c16.758,0,23.716,6.335,23.716,18.604c0,6.138-0.82,11.448-6.138,14.106s-10.627,4.292-17.578,4.292V138.709"></path>
		<path id="path16" fill="#FFFFFF" d="M140.825,100.067c0,30.872,6.138,55.408,19.424,73.198    c11.448,14.919,26.375,22.896,43.14,22.896c21.262,0,37.002-7.976,50.295-24.741c11.448-16.765,18.604-39.661,18.604-67.874    c0-27.4-5.317-50.295-14.106-67.881c-12.473-21.262-30.872-32.71-53.767-32.71c-17.791,0-32.717,8.789-44.978,24.741    C146.962,46.3,140.825,69.195,140.825,100.067z M207.065,148.524c-7.969,0-13.286-5.317-16.758-18.604    c-1.025-7.976-1.838-19.424-1.838-32.505c0-13.293,0.813-22.903,2.651-31.897c3.479-9.609,8.796-15.747,15.945-15.747    c6.958,0,11.448,6.138,14.927,16.765c1.641,8.796,3.479,18.406,3.479,30.879c0,14.106-0.82,24.529-3.479,32.505    C219.333,143.206,214.023,148.524,207.065,148.524"></path>
		<path id="path18" fill="#FFFFFF" d="M275.759,78.804c4.299-6.951,10.635-14.106,16.765-17.585c6.138-4.49,11.455-6.13,16.772-6.13    c11.44,0,16.765,5.317,16.765,15.74c0,5.317-4.504,11.455-13.293,19.424c-12.268,11.448-21.057,19.431-24.741,24.741    c-8.789,12.268-13.081,25.554-13.081,41.506c0,21.057,6.13,37.822,18.406,51.108c11.448,12.268,25.547,18.398,43.132,18.398    c5.317,0,12.473-0.813,18.604-2.651c7.156-1.641,13.293-4.299,20.244-8.796v-65.222c-5.317,7.976-11.455,13.293-16.765,16.765    c-5.317,4.497-10.43,6.138-15.747,6.138c-3.677,0-6.335-0.82-8.789-2.659c-2.659-2.659-4.497-4.292-4.497-6.951    c0-6.13,4.497-14.106,12.268-21.262c13.286-11.448,22.075-19.424,24.734-23.716c8.796-11.448,13.293-26.58,13.293-43.14    c0-19.424-5.317-38.027-18.604-50.295C348.957,10.11,334.03,2.134,314.606,2.134c-11.448,0-23.921,2.659-38.848,8.796V78.804"></path>
		<path id="path20" fill="#FFFFFF" d="M373.698,9.092l58.879,140.244l-22.903-1.838h-26.367v44.165h112.031L438.913,49.771    l19.424,1.641h30.667V9.092H373.698"></path>
	</g>
</g>
</svg>
