<?xml version="1.0" encoding="UTF-8" standalone="no"?>
<svg xmlns:dc="http://purl.org/dc/elements/1.1/" xmlns:cc="http://creativecommons.org/ns#" xmlns:rdf="http://www.w3.org/1999/02/22-rdf-syntax-ns#" xmlns:svg="http://www.w3.org/2000/svg" xmlns="http://www.w3.org/2000/svg" viewBox="0 0 66.666664 30.666668" height="30.666668" width="66.666664" xml:space="preserve" id="svg2" version="1.1">
  <metadata id="metadata8"></metadata>
  <defs id="defs6"></defs>
  <g transform="matrix(1.3333333,0,0,-1.3333333,0,30.666667)" id="g10">
    <g transform="scale(0.1)" id="g12">
      <path id="path14" style="fill:#231f20;fill-opacity:1;fill-rule:evenodd;stroke:none" d="M 3.23438,9.08984 V 221.715 H 66 c 23.7148,0 42.32,-7.156 53.77,-20.238 7.769,-9.817 12.265,-23.102 12.265,-37.211 0,-14.926 -2.656,-25.555 -9.609,-34.348 -7.156,-6.953 -15.129,-10.629 -26.5783,-10.629 14.1093,-1.637 22.8983,-6.137 30.0543,-15.746 6.953,-8.7891 9.61,-20.2383 9.61,-32.711 0,-22.0781 -6.953,-38.6406 -20.242,-48.4531 C 104.641,13.5859 90.5313,9.08984 73.7695,9.08984 Z M 55.3711,95.5703 v -39.664 c 9.6055,0 16.7617,0.8203 20.2383,4.5 3.4765,2.4531 6.1328,6.9492 6.1328,13.0859 0,7.1523 -2.6563,12.4726 -6.9531,16.7617 -5.3164,3.4766 -11.4493,5.3164 -19.418,5.3164 z m 0,43.1407 c 16.7617,0 23.7148,6.336 23.7148,18.602 0,6.136 -0.8203,11.449 -6.1367,14.109 -5.3164,2.656 -10.6289,4.293 -17.5781,4.293 v -37.004"></path>
      <path id="path16" style="fill:#231f20;fill-opacity:1;fill-rule:evenodd;stroke:none" d="m 140.828,100.07 c 0,30.871 6.133,55.403 19.422,73.192 11.449,14.926 26.375,22.898 43.141,22.898 21.261,0 37,-7.972 50.293,-24.738 11.449,-16.766 18.605,-39.664 18.605,-67.879 0,-27.3946 -5.316,-50.293 -14.109,-67.875 C 245.711,14.4063 227.309,2.95703 204.41,2.95703 c -17.785,0 -32.711,8.78907 -44.976,24.73827 -12.473,18.6016 -18.606,41.5 -18.606,72.3747 z m 66.238,48.453 c -7.972,0 -13.289,-5.316 -16.761,-18.605 -1.024,-7.973 -1.84,-19.422 -1.84,-32.5039 0,-13.293 0.816,-22.8985 2.656,-31.8985 3.477,-9.6093 8.793,-15.7422 15.945,-15.7422 6.954,0 11.45,6.1329 14.926,16.7657 1.637,8.7929 3.477,18.4023 3.477,30.875 0,14.1059 -0.817,24.5309 -3.477,32.5039 -2.656,13.289 -7.972,18.605 -14.926,18.605"></path>
      <path id="path18" style="fill:#231f20;fill-opacity:1;fill-rule:evenodd;stroke:none" d="m 275.762,78.8047 c 4.297,-6.9492 10.633,-14.1055 16.765,-17.582 6.133,-4.4961 11.45,-6.1329 16.766,-6.1329 11.445,0 16.766,5.3165 16.766,15.7422 0,5.3164 -4.5,11.4493 -13.289,19.4219 -12.27,11.4491 -21.059,19.4261 -24.743,24.7381 -8.789,12.27 -13.082,25.559 -13.082,41.508 0,21.055 6.133,37.82 18.403,51.109 11.449,12.266 25.554,18.399 43.136,18.399 5.317,0 12.473,-0.817 18.602,-2.656 7.16,-1.637 13.293,-4.293 20.242,-8.793 V 149.34 c -5.312,7.973 -11.449,13.289 -16.762,16.765 -5.316,4.497 -10.429,6.133 -15.746,6.133 -3.675,0 -6.336,-0.816 -8.789,-2.656 -2.656,-2.66 -4.496,-4.293 -4.496,-6.953 0,-6.129 4.496,-14.106 12.266,-21.262 13.285,-11.449 22.078,-19.422 24.734,-23.715 8.793,-11.449 13.293,-26.5778 13.293,-43.1364 0,-19.4258 -5.316,-38.0312 -18.605,-50.2968 C 348.957,10.1094 334.031,2.13672 314.609,2.13672 c -11.449,0 -23.921,2.66016 -38.847,8.79298 v 67.875"></path>
      <path id="path20" style="fill:#231f20;fill-opacity:1;fill-rule:evenodd;stroke:none" d="M 373.695,9.08984 432.574,149.34 409.676,147.5 h -26.371 v 44.16 H 495.34 L 438.914,49.7734 458.336,51.4102 H 489 V 9.08984 H 373.695"></path>
    </g>
  </g>
</svg>
